<mxfile host="app.diagrams.net" agent="Mozilla/5.0 (Windows NT 10.0; Win64; x64; rv:143.0) Gecko/20100101 Firefox/143.0" version="28.2.5">
  <diagram name="Page-1" id="X04pknjeeo4h0NhZOfvn">
    <mxGraphModel dx="2478" dy="893" grid="1" gridSize="10" guides="1" tooltips="1" connect="1" arrows="1" fold="1" page="1" pageScale="1" pageWidth="800" pageHeight="600" math="0" shadow="0">
      <root>
        <mxCell id="0" />
        <mxCell id="1" parent="0" />
        <mxCell id="start" value="Start" style="ellipse;whiteSpace=wrap;html=1;aspect=fixed;fillColor=#dae8fc;strokeColor=#6c8ebf;" parent="1" vertex="1">
          <mxGeometry x="124" y="48" width="40" height="16" as="geometry" />
        </mxCell>
        <mxCell id="init" value="&lt;div&gt;List,&amp;nbsp;&lt;/div&gt;&lt;div&gt;sorted = False,&amp;nbsp;&lt;/div&gt;&lt;div&gt;end = LEN(List)&amp;nbsp;- 2&lt;/div&gt;" style="rounded=1;whiteSpace=wrap;html=1;fillColor=#e1d5e7;" parent="1" vertex="1">
          <mxGeometry x="38" y="80" width="210" height="50" as="geometry" />
        </mxCell>
        <mxCell id="while" value="WHILE sorted == False" style="rhombus;whiteSpace=wrap;html=1;fillColor=#fff2cc;" parent="1" vertex="1">
          <mxGeometry x="59" y="150" width="170" height="33" as="geometry" />
        </mxCell>
        <mxCell id="set_sorted" value="sorted = True" style="rounded=1;whiteSpace=wrap;html=1;fillColor=#f8cecc;" parent="1" vertex="1">
          <mxGeometry x="99" y="196" width="90" height="20" as="geometry" />
        </mxCell>
        <mxCell id="if" value="IF List[i] &gt; List[i+1]?" style="rhombus;whiteSpace=wrap;html=1;fillColor=#fff2cc;" parent="1" vertex="1">
          <mxGeometry x="50" y="304" width="180" height="36" as="geometry" />
        </mxCell>
        <mxCell id="swap" value="&lt;div&gt;Swap&amp;nbsp;&lt;/div&gt;&lt;div&gt;List[i] &amp;lt;--&amp;gt; List[i+1]&lt;/div&gt;" style="rounded=1;whiteSpace=wrap;html=1;fillColor=#d5e8d4;" parent="1" vertex="1">
          <mxGeometry x="-30" y="349" width="120" height="30" as="geometry" />
        </mxCell>
        <mxCell id="set_false" value="sorted = False" style="rounded=1;whiteSpace=wrap;html=1;fillColor=#f8cecc;" parent="1" vertex="1">
          <mxGeometry x="-31" y="397" width="120" height="20" as="geometry" />
        </mxCell>
        <mxCell id="endfor" value="i=i+1" style="rounded=1;whiteSpace=wrap;html=1;fillColor=#e1d5e7;" parent="1" vertex="1">
          <mxGeometry x="80" y="455" width="110" height="23" as="geometry" />
        </mxCell>
        <mxCell id="endwhile" value="end = end - 1" style="rounded=1;whiteSpace=wrap;html=1;fillColor=#e1d5e7;" parent="1" vertex="1">
          <mxGeometry x="60" y="516" width="160" height="34" as="geometry" />
        </mxCell>
        <mxCell id="end" value="End" style="ellipse;whiteSpace=wrap;html=1;aspect=fixed;fillColor=#dae8fc;strokeColor=#6c8ebf;" parent="1" vertex="1">
          <mxGeometry x="93" y="626" width="75" height="30" as="geometry" />
        </mxCell>
        <mxCell id="7S_nU1_yzRK4oiWjJD-f-1" style="edgeStyle=orthogonalEdgeStyle;endArrow=block;endFill=1;" parent="1" source="start" target="init" edge="1">
          <mxGeometry relative="1" as="geometry" />
        </mxCell>
        <mxCell id="7S_nU1_yzRK4oiWjJD-f-2" style="edgeStyle=orthogonalEdgeStyle;endArrow=block;endFill=1;" parent="1" source="init" target="while" edge="1">
          <mxGeometry relative="1" as="geometry" />
        </mxCell>
        <mxCell id="7S_nU1_yzRK4oiWjJD-f-3" style="edgeStyle=orthogonalEdgeStyle;endArrow=block;endFill=1;" parent="1" source="while" target="set_sorted" edge="1">
          <mxGeometry relative="1" as="geometry" />
        </mxCell>
        <mxCell id="7S_nU1_yzRK4oiWjJD-f-4" style="edgeStyle=orthogonalEdgeStyle;endArrow=block;endFill=1;entryX=0.507;entryY=0.085;entryDx=0;entryDy=0;entryPerimeter=0;exitX=0.449;exitY=0.93;exitDx=0;exitDy=0;exitPerimeter=0;" parent="1" source="7S_nU1_yzRK4oiWjJD-f-18" target="7S_nU1_yzRK4oiWjJD-f-14" edge="1">
          <mxGeometry relative="1" as="geometry" />
        </mxCell>
        <mxCell id="7S_nU1_yzRK4oiWjJD-f-5" style="edgeStyle=orthogonalEdgeStyle;endArrow=block;endFill=1;exitX=0.5;exitY=1;exitDx=0;exitDy=0;" parent="1" source="7S_nU1_yzRK4oiWjJD-f-14" target="if" edge="1">
          <mxGeometry relative="1" as="geometry" />
        </mxCell>
        <mxCell id="7S_nU1_yzRK4oiWjJD-f-15" value="YES (i&amp;lt;= N-2)" style="edgeLabel;html=1;align=center;verticalAlign=middle;resizable=0;points=[];" vertex="1" connectable="0" parent="7S_nU1_yzRK4oiWjJD-f-5">
          <mxGeometry x="-0.3278" y="2" relative="1" as="geometry">
            <mxPoint x="-40" as="offset" />
          </mxGeometry>
        </mxCell>
        <mxCell id="7S_nU1_yzRK4oiWjJD-f-6" value="" style="edgeStyle=orthogonalEdgeStyle;endArrow=block;endFill=1;exitX=0;exitY=0.5;exitDx=0;exitDy=0;" parent="1" source="if" target="swap" edge="1">
          <mxGeometry relative="1" as="geometry" />
        </mxCell>
        <mxCell id="yes" value="Yes" style="text;html=1;strokeColor=none;fillColor=none;fontSize=12;" parent="1" vertex="1">
          <mxGeometry y="308" width="30" height="16" as="geometry" />
        </mxCell>
        <mxCell id="7S_nU1_yzRK4oiWjJD-f-7" style="edgeStyle=orthogonalEdgeStyle;endArrow=block;endFill=1;" parent="1" source="swap" target="set_false" edge="1">
          <mxGeometry relative="1" as="geometry" />
        </mxCell>
        <mxCell id="7S_nU1_yzRK4oiWjJD-f-8" style="edgeStyle=orthogonalEdgeStyle;endArrow=block;endFill=1;exitX=0.5;exitY=1;exitDx=0;exitDy=0;entryX=0.46;entryY=0.033;entryDx=0;entryDy=0;entryPerimeter=0;" parent="1" source="set_false" target="endfor" edge="1">
          <mxGeometry relative="1" as="geometry">
            <Array as="points">
              <mxPoint x="29" y="430" />
              <mxPoint x="131" y="430" />
            </Array>
            <mxPoint x="140" y="470" as="targetPoint" />
          </mxGeometry>
        </mxCell>
        <mxCell id="7S_nU1_yzRK4oiWjJD-f-9" value="" style="edgeStyle=orthogonalEdgeStyle;endArrow=block;endFill=1;exitX=1;exitY=0.5;exitDx=0;exitDy=0;entryX=0.465;entryY=-0.046;entryDx=0;entryDy=0;entryPerimeter=0;" parent="1" source="if" target="endfor" edge="1">
          <mxGeometry relative="1" as="geometry">
            <Array as="points">
              <mxPoint x="260" y="322" />
              <mxPoint x="260" y="430" />
              <mxPoint x="131" y="430" />
            </Array>
            <mxPoint x="140" y="440" as="targetPoint" />
          </mxGeometry>
        </mxCell>
        <mxCell id="7S_nU1_yzRK4oiWjJD-f-10" style="edgeStyle=orthogonalEdgeStyle;endArrow=block;endFill=1;" parent="1" source="endfor" edge="1">
          <mxGeometry relative="1" as="geometry">
            <mxPoint x="140" y="260" as="targetPoint" />
            <Array as="points">
              <mxPoint x="-60" y="467" />
              <mxPoint x="-60" y="260" />
            </Array>
          </mxGeometry>
        </mxCell>
        <mxCell id="7S_nU1_yzRK4oiWjJD-f-11" style="edgeStyle=orthogonalEdgeStyle;endArrow=block;endFill=1;exitX=-0.001;exitY=0.436;exitDx=0;exitDy=0;exitPerimeter=0;" parent="1" source="7S_nU1_yzRK4oiWjJD-f-25" edge="1">
          <mxGeometry relative="1" as="geometry">
            <Array as="points">
              <mxPoint x="54" y="580" />
              <mxPoint x="-100" y="580" />
              <mxPoint x="-100" y="140" />
            </Array>
            <mxPoint x="140" y="140" as="targetPoint" />
          </mxGeometry>
        </mxCell>
        <mxCell id="7S_nU1_yzRK4oiWjJD-f-12" style="edgeStyle=orthogonalEdgeStyle;endArrow=block;endFill=1;exitX=1;exitY=0.5;exitDx=0;exitDy=0;" parent="1" source="while" target="end" edge="1">
          <mxGeometry relative="1" as="geometry">
            <Array as="points">
              <mxPoint x="370" y="167" />
              <mxPoint x="370" y="620" />
              <mxPoint x="125" y="620" />
            </Array>
            <mxPoint x="190" y="170" as="sourcePoint" />
          </mxGeometry>
        </mxCell>
        <mxCell id="7S_nU1_yzRK4oiWjJD-f-14" value="&lt;div&gt;If i&amp;lt;= N-2&lt;/div&gt;" style="rhombus;whiteSpace=wrap;html=1;fillColor=#fff2cc;" vertex="1" parent="1">
          <mxGeometry x="69.5" y="266" width="141" height="20" as="geometry" />
        </mxCell>
        <mxCell id="7S_nU1_yzRK4oiWjJD-f-16" value="NO" style="text;html=1;strokeColor=none;fillColor=none;fontSize=12;" vertex="1" parent="1">
          <mxGeometry x="231" y="298" width="30" height="16" as="geometry" />
        </mxCell>
        <mxCell id="7S_nU1_yzRK4oiWjJD-f-18" value="FOR i=0 to end" style="rounded=1;whiteSpace=wrap;html=1;fillColor=#f8cecc;" vertex="1" parent="1">
          <mxGeometry x="101" y="229" width="90" height="20" as="geometry" />
        </mxCell>
        <mxCell id="7S_nU1_yzRK4oiWjJD-f-22" value="" style="endArrow=classic;html=1;rounded=0;exitX=0.5;exitY=1;exitDx=0;exitDy=0;entryX=0.476;entryY=0.04;entryDx=0;entryDy=0;entryPerimeter=0;" edge="1" parent="1" source="set_sorted" target="7S_nU1_yzRK4oiWjJD-f-18">
          <mxGeometry width="50" height="50" relative="1" as="geometry">
            <mxPoint x="120" y="250" as="sourcePoint" />
            <mxPoint x="170" y="200" as="targetPoint" />
          </mxGeometry>
        </mxCell>
        <mxCell id="7S_nU1_yzRK4oiWjJD-f-23" style="edgeStyle=orthogonalEdgeStyle;endArrow=block;endFill=1;exitX=1;exitY=0.5;exitDx=0;exitDy=0;entryX=0.5;entryY=0;entryDx=0;entryDy=0;" edge="1" parent="1" source="7S_nU1_yzRK4oiWjJD-f-14" target="endwhile">
          <mxGeometry relative="1" as="geometry">
            <mxPoint x="400" y="567" as="sourcePoint" />
            <mxPoint x="460" y="360" as="targetPoint" />
            <Array as="points">
              <mxPoint x="310" y="276" />
              <mxPoint x="310" y="500" />
            </Array>
          </mxGeometry>
        </mxCell>
        <mxCell id="7S_nU1_yzRK4oiWjJD-f-24" value="&lt;div&gt;NO&lt;/div&gt;" style="edgeLabel;html=1;align=center;verticalAlign=middle;resizable=0;points=[];" vertex="1" connectable="0" parent="7S_nU1_yzRK4oiWjJD-f-23">
          <mxGeometry x="-0.9033" y="1" relative="1" as="geometry">
            <mxPoint as="offset" />
          </mxGeometry>
        </mxCell>
        <mxCell id="7S_nU1_yzRK4oiWjJD-f-25" value="End WHILE" style="rounded=1;whiteSpace=wrap;html=1;fillColor=#e1d5e7;" vertex="1" parent="1">
          <mxGeometry x="60" y="567" width="160" height="30" as="geometry" />
        </mxCell>
        <mxCell id="7S_nU1_yzRK4oiWjJD-f-27" value="" style="endArrow=classic;html=1;rounded=0;exitX=0.5;exitY=1;exitDx=0;exitDy=0;entryX=0.5;entryY=0;entryDx=0;entryDy=0;" edge="1" parent="1" source="endwhile" target="7S_nU1_yzRK4oiWjJD-f-25">
          <mxGeometry width="50" height="50" relative="1" as="geometry">
            <mxPoint x="-230" y="430" as="sourcePoint" />
            <mxPoint x="-180" y="380" as="targetPoint" />
          </mxGeometry>
        </mxCell>
      </root>
    </mxGraphModel>
  </diagram>
</mxfile>
